<?xml version="1.0" standalone="no"?>
<!DOCTYPE svg PUBLIC "-//W3C//DTD SVG 20010904//EN"
 "http://www.w3.org/TR/2001/REC-SVG-20010904/DTD/svg10.dtd">
<svg version="1.0" xmlns="http://www.w3.org/2000/svg"
 width="1024.000000pt" height="1024.000000pt" viewBox="0 0 1024.000000 1024.000000"
 preserveAspectRatio="xMidYMid meet">

<g transform="translate(0.000000,1024.000000) scale(0.100000,-0.100000)"
fill="#000000" stroke="none">
<path d="M0 5120 l0 -5120 5120 0 5120 0 0 5120 0 5120 -5120 0 -5120 0 0
-5120z m5320 2305 c57 -8 150 -24 205 -34 55 -11 149 -25 209 -31 71 -7 147
-23 215 -45 58 -18 133 -39 166 -45 51 -10 236 -85 300 -122 11 -7 84 -45 163
-85 99 -50 178 -99 255 -160 240 -187 307 -257 307 -324 0 -32 -6 -42 -47 -76
-27 -22 -77 -56 -113 -75 -132 -71 -208 -116 -242 -141 -19 -15 -54 -34 -78
-42 -24 -9 -65 -28 -90 -44 -25 -15 -63 -37 -85 -48 -22 -11 -78 -41 -125 -66
-128 -70 -129 -69 -334 67 -232 154 -281 182 -350 202 -33 9 -92 31 -130 48
l-71 31 -335 0 c-356 -1 -434 -8 -580 -55 -36 -12 -95 -27 -131 -35 -36 -8
-103 -32 -149 -54 -46 -23 -89 -41 -95 -41 -6 0 -38 -16 -71 -36 -32 -20 -76
-42 -97 -50 -43 -15 -113 -62 -173 -115 -22 -20 -71 -53 -110 -74 -118 -66
-247 -207 -470 -511 -41 -56 -201 -375 -247 -494 -29 -75 -47 -139 -52 -185
-4 -42 -19 -98 -37 -140 -23 -55 -32 -95 -39 -185 -6 -63 -19 -149 -29 -190
-10 -41 -23 -117 -29 -167 -18 -145 -38 -183 -101 -183 -49 0 -75 29 -95 105
-8 33 -31 98 -49 145 -22 53 -39 117 -45 170 -6 47 -18 120 -26 164 -39 201
-47 622 -15 806 37 223 78 400 100 436 12 19 30 67 40 105 10 39 30 87 44 107
14 20 32 55 39 77 14 38 121 207 204 322 21 29 58 80 82 115 55 77 242 266
336 340 62 48 160 115 369 250 32 21 63 38 69 38 6 0 31 13 56 30 26 16 73 36
106 44 32 9 80 27 106 40 25 14 75 32 110 41 35 9 101 32 147 51 92 38 105 40
482 94 298 42 380 46 530 25z m1986 -2210 c68 -73 67 -58 72 -871 2 -501 0
-744 -7 -771 -18 -66 -89 -161 -231 -307 -145 -149 -258 -251 -336 -304 -27
-18 -71 -48 -99 -67 -56 -38 -272 -155 -325 -175 -19 -8 -51 -24 -70 -36 -19
-12 -61 -30 -94 -39 -32 -9 -83 -27 -113 -40 -30 -14 -101 -33 -159 -44 -57
-11 -152 -35 -211 -54 -101 -33 -123 -36 -333 -48 -395 -23 -711 -13 -816 25
-116 43 -240 99 -267 122 -16 14 -51 36 -76 50 -195 105 -321 233 -572 583
-18 25 -41 67 -51 94 -10 27 -31 74 -47 105 -16 31 -39 95 -52 142 -12 47 -36
117 -52 155 -28 65 -31 84 -40 258 -7 130 -7 242 0 360 11 175 20 219 69 322
25 54 90 128 108 122 24 -8 47 -69 60 -165 8 -55 24 -122 36 -149 12 -26 30
-72 41 -101 23 -67 126 -246 186 -326 81 -106 360 -373 433 -413 188 -104 287
-146 435 -183 187 -48 305 -64 465 -63 113 0 140 4 284 41 118 30 170 49 201
71 23 16 61 38 86 47 24 10 70 34 101 53 31 20 85 52 119 71 110 62 263 213
299 295 12 26 21 79 25 155 9 143 -2 192 -48 221 -31 19 -47 20 -437 17 -391
-2 -407 -2 -440 18 -56 32 -59 51 -59 432 -1 386 0 391 66 413 28 9 144 10
482 6 245 -3 597 -2 781 2 184 4 384 8 444 9 l109 2 33 -35z"/>
</g>
</svg>
